<svg width="73" height="73" viewBox="0 0 73 73" fill="none" xmlns="http://www.w3.org/2000/svg">
<path d="M48.1155 32.2686C48.1155 34.7598 46.7692 36.7795 45.1083 36.7795C43.4474 36.7795 42.1011 34.7598 42.1011 32.2686C42.1011 29.7774 43.4474 27.7578 45.1083 27.7578C46.7692 27.7578 48.1155 29.7774 48.1155 32.2686Z" fill="white"/>
<path d="M27.065 36.7795C28.7258 36.7795 30.0722 34.7599 30.0722 32.2686C30.0722 29.7774 28.7258 27.7578 27.065 27.7578C25.4041 27.7578 24.0577 29.7774 24.0577 32.2686C24.0577 34.7599 25.4041 36.7795 27.065 36.7795Z" fill="white"/>
<path d="M66.1588 37.6834C66.1588 20.5757 52.6949 6.70728 36.0866 6.70728C19.4782 6.70728 6.01447 20.5757 6.01447 37.6834V60.0042C6.01447 63.9806 10.0772 66.5671 13.5301 64.7887C16.321 63.3512 19.6456 63.5644 22.2418 65.3474C25.1625 67.3529 28.9675 67.3529 31.8883 65.3474L32.9486 64.619C34.8489 63.3142 37.3244 63.3142 39.2247 64.619L40.285 65.3474C43.2059 67.3529 47.0106 67.3529 49.9316 65.3474C52.5277 63.5644 55.8522 63.3512 58.6432 64.7887C62.096 66.5671 66.1588 63.9806 66.1588 60.0042V48.8438" stroke="white" stroke-width="4.51083" stroke-linecap="round"/>
</svg>
